<svg width="250" height="20" viewBox="0 0 250 20" fill="none" xmlns="http://www.w3.org/2000/svg">
<path d="M3.83887 0.515625V19H0.0302734V0.515625H3.83887ZM14.9092 0.515625L7.58398 9.64355L3.35645 14.1885L2.6709 10.583L5.52734 6.67285L10.2373 0.515625H14.9092ZM10.5801 19L5.13379 10.4561L7.95215 8.09473L15.0869 19H10.5801ZM28.9629 16.0293V19H19.124V16.0293H28.9629ZM20.3682 0.515625V19H16.5596V0.515625H20.3682ZM27.6807 8.04395V10.9385H19.124V8.04395H27.6807ZM28.9502 0.515625V3.49902H19.124V0.515625H28.9502ZM43.5879 16.0293V19H33.749V16.0293H43.5879ZM34.9932 0.515625V19H31.1846V0.515625H34.9932ZM42.3057 8.04395V10.9385H33.749V8.04395H42.3057ZM43.5752 0.515625V3.49902H33.749V0.515625H43.5752ZM45.8096 0.515625H52.7031C54.1165 0.515625 55.3311 0.727214 56.3467 1.15039C57.3708 1.57357 58.1579 2.19987 58.708 3.0293C59.2581 3.85872 59.5332 4.87858 59.5332 6.08887C59.5332 7.0791 59.3639 7.92969 59.0254 8.64062C58.6953 9.3431 58.2256 9.93132 57.6162 10.4053C57.0153 10.8708 56.3086 11.2432 55.4961 11.5225L54.29 12.1572H48.2979L48.2725 9.18652H52.7285C53.3971 9.18652 53.9515 9.06803 54.3916 8.83105C54.8317 8.59408 55.1618 8.264 55.3818 7.84082C55.6104 7.41764 55.7246 6.92676 55.7246 6.36816C55.7246 5.77572 55.6146 5.26367 55.3945 4.83203C55.1745 4.40039 54.8402 4.07031 54.3916 3.8418C53.943 3.61328 53.3802 3.49902 52.7031 3.49902H49.6182V19H45.8096V0.515625ZM56.1436 19L51.9287 10.7607L55.9531 10.7354L60.2188 18.8223V19H56.1436ZM69.9688 0.515625V19H66.1729V0.515625H69.9688ZM75.6562 0.515625V3.49902H60.5742V0.515625H75.6562ZM90.1543 8.04395V11.0146H80.5059V8.04395H90.1543ZM81.6357 0.515625V19H77.8271V0.515625H81.6357ZM92.8711 0.515625V19H89.0752V0.515625H92.8711ZM103.929 3.67676L98.9014 19H94.8516L101.72 0.515625H104.297L103.929 3.67676ZM108.105 19L103.065 3.67676L102.659 0.515625H105.262L112.168 19H108.105ZM107.877 12.1191V15.1025H98.1143V12.1191H107.877ZM128.926 0.515625V19H125.117L117.69 6.60938V19H113.882V0.515625H117.69L125.13 12.9189V0.515625H128.926ZM139.983 3.67676L134.956 19H130.906L137.774 0.515625H140.352L139.983 3.67676ZM144.16 19L139.12 3.67676L138.714 0.515625H141.316L148.223 19H144.16ZM143.932 12.1191V15.1025H134.169V12.1191H143.932ZM156.411 0.515625H163.305C164.718 0.515625 165.933 0.727214 166.948 1.15039C167.972 1.57357 168.759 2.19987 169.31 3.0293C169.86 3.85872 170.135 4.87858 170.135 6.08887C170.135 7.0791 169.965 7.92969 169.627 8.64062C169.297 9.3431 168.827 9.93132 168.218 10.4053C167.617 10.8708 166.91 11.2432 166.098 11.5225L164.892 12.1572H158.899L158.874 9.18652H163.33C163.999 9.18652 164.553 9.06803 164.993 8.83105C165.433 8.59408 165.763 8.264 165.983 7.84082C166.212 7.41764 166.326 6.92676 166.326 6.36816C166.326 5.77572 166.216 5.26367 165.996 4.83203C165.776 4.40039 165.442 4.07031 164.993 3.8418C164.545 3.61328 163.982 3.49902 163.305 3.49902H160.22V19H156.411V0.515625ZM166.745 19L162.53 10.7607L166.555 10.7354L170.82 18.8223V19H166.745ZM180.583 3.67676L175.556 19H171.506L178.374 0.515625H180.951L180.583 3.67676ZM184.76 19L179.72 3.67676L179.313 0.515625H181.916L188.822 19H184.76ZM184.531 12.1191V15.1025H174.769V12.1191H184.531ZM198.014 13.3252V0.515625H201.81V13.3252C201.81 14.5609 201.539 15.623 200.997 16.5117C200.455 17.3919 199.715 18.069 198.775 18.543C197.844 19.0169 196.795 19.2539 195.627 19.2539C194.417 19.2539 193.346 19.0508 192.415 18.6445C191.484 18.2383 190.752 17.6162 190.219 16.7783C189.686 15.932 189.419 14.8613 189.419 13.5664H193.24C193.24 14.2435 193.333 14.7809 193.52 15.1787C193.714 15.5765 193.989 15.86 194.345 16.0293C194.7 16.1986 195.128 16.2832 195.627 16.2832C196.109 16.2832 196.528 16.1689 196.884 15.9404C197.239 15.7119 197.514 15.3776 197.709 14.9375C197.912 14.4974 198.014 13.96 198.014 13.3252ZM218.771 10.8877H214.022L213.997 8.27246H217.983C218.686 8.27246 219.261 8.18359 219.71 8.00586C220.159 7.81966 220.493 7.55306 220.713 7.20605C220.941 6.85059 221.056 6.41895 221.056 5.91113C221.056 5.33561 220.946 4.87012 220.726 4.51465C220.514 4.15918 220.18 3.90104 219.723 3.74023C219.274 3.57943 218.694 3.49902 217.983 3.49902H215.343V19H211.534V0.515625H217.983C219.058 0.515625 220.019 0.617188 220.865 0.820312C221.72 1.02344 222.444 1.33236 223.036 1.74707C223.629 2.16178 224.081 2.68652 224.395 3.32129C224.708 3.94759 224.864 4.69238 224.864 5.55566C224.864 6.31738 224.691 7.01986 224.344 7.66309C224.005 8.30632 223.468 8.83105 222.731 9.2373C222.004 9.64355 221.051 9.86784 219.875 9.91016L218.771 10.8877ZM218.605 19H212.981L214.467 16.0293H218.605C219.274 16.0293 219.82 15.9235 220.243 15.7119C220.666 15.4919 220.979 15.1956 221.183 14.8232C221.386 14.4508 221.487 14.0234 221.487 13.541C221.487 12.9993 221.394 12.5296 221.208 12.1318C221.03 11.734 220.743 11.4294 220.345 11.2178C219.947 10.9977 219.422 10.8877 218.771 10.8877H215.102L215.127 8.27246H219.697L220.573 9.30078C221.699 9.28385 222.604 9.48275 223.29 9.89746C223.984 10.3037 224.488 10.8327 224.801 11.4844C225.122 12.1361 225.283 12.8343 225.283 13.5791C225.283 14.764 225.025 15.7627 224.509 16.5752C223.993 17.3792 223.235 17.9844 222.236 18.3906C221.246 18.7969 220.036 19 218.605 19ZM234.614 0.515625H241.508C242.921 0.515625 244.136 0.727214 245.151 1.15039C246.175 1.57357 246.963 2.19987 247.513 3.0293C248.063 3.85872 248.338 4.87858 248.338 6.08887C248.338 7.0791 248.169 7.92969 247.83 8.64062C247.5 9.3431 247.03 9.93132 246.421 10.4053C245.82 10.8708 245.113 11.2432 244.301 11.5225L243.095 12.1572H237.103L237.077 9.18652H241.533C242.202 9.18652 242.756 9.06803 243.196 8.83105C243.636 8.59408 243.966 8.264 244.187 7.84082C244.415 7.41764 244.529 6.92676 244.529 6.36816C244.529 5.77572 244.419 5.26367 244.199 4.83203C243.979 4.40039 243.645 4.07031 243.196 3.8418C242.748 3.61328 242.185 3.49902 241.508 3.49902H238.423V19H234.614V0.515625ZM244.948 19L240.733 10.7607L244.758 10.7354L249.023 18.8223V19H244.948Z" fill="#EE2A7B"/>
</svg>
