<svg width="336" height="37" viewBox="0 0 336 37" fill="none" xmlns="http://www.w3.org/2000/svg">
<path d="M0.146407 29V0.799998H5.26641V13.28H5.34641L17.7864 0.799998H24.0264L10.3064 14.36L24.7064 29H18.3864L5.34641 15.96H5.26641V29H0.146407ZM35.3611 29.4C33.1478 29.4 31.2411 28.9867 29.6411 28.16C28.0411 27.3333 26.8011 26.16 25.9211 24.64C25.0678 23.12 24.6411 21.32 24.6411 19.24C24.6411 17.2133 25.0544 15.44 25.8811 13.92C26.7344 12.4 27.8944 11.2133 29.3611 10.36C30.8544 9.48 32.5478 9.04 34.4411 9.04C37.2144 9.04 39.4011 9.92 41.0011 11.68C42.6278 13.44 43.4411 15.84 43.4411 18.88V20.36H29.4411C29.8144 23.8533 31.8144 25.6 35.4411 25.6C36.5344 25.6 37.6278 25.44 38.7211 25.12C39.8144 24.7733 40.8144 24.24 41.7211 23.52L43.1211 26.88C42.1878 27.6533 41.0144 28.2667 39.6011 28.72C38.1878 29.1733 36.7744 29.4 35.3611 29.4ZM34.6411 12.44C33.1744 12.44 31.9878 12.8933 31.0811 13.8C30.1744 14.7067 29.6278 15.9333 29.4411 17.48H39.2811C39.1744 15.8533 38.7211 14.6133 37.9211 13.76C37.1478 12.88 36.0544 12.44 34.6411 12.44ZM57.0408 29.4C54.8274 29.4 52.9208 28.9867 51.3208 28.16C49.7208 27.3333 48.4808 26.16 47.6008 24.64C46.7474 23.12 46.3208 21.32 46.3208 19.24C46.3208 17.2133 46.7341 15.44 47.5608 13.92C48.4141 12.4 49.5741 11.2133 51.0408 10.36C52.5341 9.48 54.2274 9.04 56.1208 9.04C58.8941 9.04 61.0808 9.92 62.6808 11.68C64.3074 13.44 65.1208 15.84 65.1208 18.88V20.36H51.1208C51.4941 23.8533 53.4941 25.6 57.1208 25.6C58.2141 25.6 59.3074 25.44 60.4008 25.12C61.4941 24.7733 62.4941 24.24 63.4008 23.52L64.8008 26.88C63.8674 27.6533 62.6941 28.2667 61.2808 28.72C59.8674 29.1733 58.4541 29.4 57.0408 29.4ZM56.3208 12.44C54.8541 12.44 53.6674 12.8933 52.7608 13.8C51.8541 14.7067 51.3074 15.9333 51.1208 17.48H60.9608C60.8541 15.8533 60.4008 14.6133 59.6008 13.76C58.8274 12.88 57.7341 12.44 56.3208 12.44ZM69.0805 29V9.44H73.9605V12.88C74.9205 10.56 76.9738 9.28 80.1205 9.04L81.6405 8.92L81.9605 13.16L79.0805 13.44C75.8005 13.76 74.1605 15.44 74.1605 18.48V29H69.0805ZM94.8373 29.4C89.664 29.4 87.0773 26.84 87.0773 21.72V13.2H83.3173V9.44H87.0773V3.6H92.0773V9.44H97.9973V13.2H92.0773V21.44C92.0773 22.72 92.3573 23.68 92.9173 24.32C93.4773 24.96 94.384 25.28 95.6373 25.28C96.0107 25.28 96.3973 25.24 96.7973 25.16C97.1973 25.0533 97.6107 24.9467 98.0373 24.84L98.7973 28.52C98.3173 28.7867 97.704 29 96.9573 29.16C96.2373 29.32 95.5307 29.4 94.8373 29.4ZM101.229 29V0.799998H106.229V12.28C106.896 11.2133 107.789 10.4133 108.909 9.88C110.029 9.32 111.269 9.04 112.629 9.04C117.242 9.04 119.549 11.72 119.549 17.08V29H114.549V17.32C114.549 15.8 114.256 14.6933 113.669 14C113.109 13.3067 112.229 12.96 111.029 12.96C109.562 12.96 108.389 13.4267 107.509 14.36C106.656 15.2667 106.229 16.48 106.229 18V29H101.229ZM131.067 29.4C129.654 29.4 128.387 29.1333 127.267 28.6C126.174 28.04 125.307 27.2933 124.667 26.36C124.054 25.4267 123.747 24.3733 123.747 23.2C123.747 21.76 124.121 20.6267 124.867 19.8C125.614 18.9467 126.827 18.3333 128.507 17.96C130.187 17.5867 132.441 17.4 135.267 17.4H136.667V16.56C136.667 15.2267 136.374 14.2667 135.787 13.68C135.201 13.0933 134.214 12.8 132.827 12.8C131.734 12.8 130.614 12.9733 129.467 13.32C128.321 13.64 127.161 14.1467 125.987 14.84L124.547 11.44C125.241 10.96 126.054 10.5467 126.987 10.2C127.947 9.82667 128.947 9.54667 129.987 9.36C131.054 9.14667 132.054 9.04 132.987 9.04C135.841 9.04 137.961 9.70667 139.347 11.04C140.734 12.3467 141.427 14.3867 141.427 17.16V29H136.747V25.88C136.294 26.9733 135.574 27.84 134.587 28.48C133.601 29.0933 132.427 29.4 131.067 29.4ZM132.107 25.96C133.414 25.96 134.494 25.5067 135.347 24.6C136.227 23.6933 136.667 22.5467 136.667 21.16V20.28H135.307C132.801 20.28 131.054 20.48 130.067 20.88C129.107 21.2533 128.627 21.9467 128.627 22.96C128.627 23.84 128.934 24.56 129.547 25.12C130.161 25.68 131.014 25.96 132.107 25.96ZM146.502 29V9.44H151.382V12.48C152.049 11.36 152.942 10.5067 154.062 9.92C155.209 9.33333 156.489 9.04 157.902 9.04C162.516 9.04 164.822 11.72 164.822 17.08V29H159.822V17.32C159.822 15.8 159.529 14.6933 158.942 14C158.382 13.3067 157.502 12.96 156.302 12.96C154.836 12.96 153.662 13.4267 152.782 14.36C151.929 15.2667 151.502 16.48 151.502 18V29H146.502ZM176.341 29.4C174.927 29.4 173.661 29.1333 172.541 28.6C171.447 28.04 170.581 27.2933 169.941 26.36C169.327 25.4267 169.021 24.3733 169.021 23.2C169.021 21.76 169.394 20.6267 170.141 19.8C170.887 18.9467 172.101 18.3333 173.781 17.96C175.461 17.5867 177.714 17.4 180.541 17.4H181.941V16.56C181.941 15.2267 181.647 14.2667 181.061 13.68C180.474 13.0933 179.487 12.8 178.101 12.8C177.007 12.8 175.887 12.9733 174.741 13.32C173.594 13.64 172.434 14.1467 171.261 14.84L169.821 11.44C170.514 10.96 171.327 10.5467 172.261 10.2C173.221 9.82667 174.221 9.54667 175.261 9.36C176.327 9.14667 177.327 9.04 178.261 9.04C181.114 9.04 183.234 9.70667 184.621 11.04C186.007 12.3467 186.701 14.3867 186.701 17.16V29H182.021V25.88C181.567 26.9733 180.847 27.84 179.861 28.48C178.874 29.0933 177.701 29.4 176.341 29.4ZM177.381 25.96C178.687 25.96 179.767 25.5067 180.621 24.6C181.501 23.6933 181.941 22.5467 181.941 21.16V20.28H180.581C178.074 20.28 176.327 20.48 175.341 20.88C174.381 21.2533 173.901 21.9467 173.901 22.96C173.901 23.84 174.207 24.56 174.821 25.12C175.434 25.68 176.287 25.96 177.381 25.96ZM203.037 29V0.799998H215.277C218.37 0.799998 220.757 1.54666 222.437 3.04C224.117 4.50666 224.957 6.57333 224.957 9.24C224.957 11.3467 224.41 13.0933 223.317 14.48C222.224 15.84 220.65 16.76 218.597 17.24C219.957 17.6667 221.077 18.6933 221.957 20.32L226.677 29H221.037L216.157 20C215.677 19.12 215.104 18.52 214.437 18.2C213.797 17.88 212.97 17.72 211.957 17.72H208.157V29H203.037ZM208.157 13.92H214.397C218.13 13.92 219.997 12.4 219.997 9.36C219.997 6.34667 218.13 4.84 214.397 4.84H208.157V13.92ZM236.224 29.4C234.81 29.4 233.544 29.1333 232.424 28.6C231.33 28.04 230.464 27.2933 229.824 26.36C229.21 25.4267 228.904 24.3733 228.904 23.2C228.904 21.76 229.277 20.6267 230.024 19.8C230.77 18.9467 231.984 18.3333 233.664 17.96C235.344 17.5867 237.597 17.4 240.424 17.4H241.824V16.56C241.824 15.2267 241.53 14.2667 240.944 13.68C240.357 13.0933 239.37 12.8 237.984 12.8C236.89 12.8 235.77 12.9733 234.624 13.32C233.477 13.64 232.317 14.1467 231.144 14.84L229.704 11.44C230.397 10.96 231.21 10.5467 232.144 10.2C233.104 9.82667 234.104 9.54667 235.144 9.36C236.21 9.14667 237.21 9.04 238.144 9.04C240.997 9.04 243.117 9.70667 244.504 11.04C245.89 12.3467 246.584 14.3867 246.584 17.16V29H241.904V25.88C241.45 26.9733 240.73 27.84 239.744 28.48C238.757 29.0933 237.584 29.4 236.224 29.4ZM237.264 25.96C238.57 25.96 239.65 25.5067 240.504 24.6C241.384 23.6933 241.824 22.5467 241.824 21.16V20.28H240.464C237.957 20.28 236.21 20.48 235.224 20.88C234.264 21.2533 233.784 21.9467 233.784 22.96C233.784 23.84 234.09 24.56 234.704 25.12C235.317 25.68 236.17 25.96 237.264 25.96ZM251.499 5.24V0.359999H257.099V5.24H251.499ZM247.259 36.72L246.899 33.08L248.739 32.88C250.792 32.64 251.819 31.44 251.819 29.28V9.44H256.819V28.64C256.819 31.2533 256.219 33.1733 255.019 34.4C253.819 35.6533 251.805 36.3867 248.979 36.6L247.259 36.72ZM273.271 29V0.799998H285.591C288.551 0.799998 290.845 1.45333 292.471 2.76C294.098 4.04 294.911 5.82667 294.911 8.12C294.911 9.64 294.525 10.9467 293.751 12.04C292.978 13.1333 291.911 13.9333 290.551 14.44C292.151 14.8933 293.391 15.6933 294.271 16.84C295.178 17.96 295.631 19.3867 295.631 21.12C295.631 23.6267 294.778 25.5733 293.071 26.96C291.391 28.32 289.045 29 286.031 29H273.271ZM278.191 12.76H284.711C288.205 12.76 289.951 11.4133 289.951 8.72C289.951 6.02667 288.205 4.68 284.711 4.68H278.191V12.76ZM278.191 25.12H285.391C288.911 25.12 290.671 23.7067 290.671 20.88C290.671 18.0533 288.911 16.64 285.391 16.64H278.191V25.12ZM311.592 29V0.799998H323.832C326.925 0.799998 329.312 1.54666 330.992 3.04C332.672 4.50666 333.512 6.57333 333.512 9.24C333.512 11.3467 332.965 13.0933 331.872 14.48C330.778 15.84 329.205 16.76 327.152 17.24C328.512 17.6667 329.632 18.6933 330.512 20.32L335.232 29H329.592L324.712 20C324.232 19.12 323.658 18.52 322.992 18.2C322.352 17.88 321.525 17.72 320.512 17.72H316.712V29H311.592ZM316.712 13.92H322.952C326.685 13.92 328.552 12.4 328.552 9.36C328.552 6.34667 326.685 4.84 322.952 4.84H316.712V13.92Z" fill="#20C997"/>
</svg>
